<svg id="Avoid_queue" data-name="Avoid queue" xmlns="http://www.w3.org/2000/svg" width="79.475" height="79.471" viewBox="0 0 79.475 79.471">
  <g id="Group_1033" data-name="Group 1033" transform="translate(0 0)">
    <g id="Group_1032" data-name="Group 1032">
      <g id="XMLID_1680_" transform="translate(0 0)">
        <path id="XMLID_2093_" d="M105,128.388a23.4,23.4,0,0,0,23.374,23.374l1.558-23.841-1.558-22.906A23.4,23.4,0,0,0,105,128.388Z" transform="translate(-88.638 -88.652)" fill="#ffda2d"/>
        <path id="XMLID_2143_" d="M255,105.014v46.748a23.374,23.374,0,0,0,0-46.748Z" transform="translate(-215.264 -88.652)" fill="#fdbf00"/>
        <path id="XMLID_2025_" d="M152.152,135.95a18.738,18.738,0,0,0-16.216,16.216l1.724,2.337-1.724,2.337a18.738,18.738,0,0,0,16.216,16.216l2.337-4.529,1.558-15.972-1.558-12.076Z" transform="translate(-114.754 -114.768)" fill="#f4f1f1"/>
        <path id="XMLID_2066_" d="M273.553,152.166a18.738,18.738,0,0,0-16.216-16.216L255,140.479v28.049l2.337,4.529a18.738,18.738,0,0,0,16.216-16.216l-2.264-2.337Z" transform="translate(-215.264 -114.768)" fill="#eae7ea"/>
        <path id="XMLID_2103_" d="M349.529,240.014H345v4.675h4.529a18.8,18.8,0,0,0,0-4.675Z" transform="translate(-291.24 -202.616)" fill="#dddadf"/>
        <path id="XMLID_2119_" d="M139.675,240.014h-4.529a18.816,18.816,0,0,0,0,4.675h4.529Z" transform="translate(-113.964 -202.616)" fill="#eae7ea"/>
        <path id="XMLID_2019_" d="M240,135.16v4.529h2.337l1.558-2.337-1.558-2.337A18.788,18.788,0,0,0,240,135.16Z" transform="translate(-202.602 -113.978)" fill="#eae7ea"/>
        <path id="XMLID_2067_" d="M257.337,135.16a18.817,18.817,0,0,0-2.337-.146v4.675h2.337Z" transform="translate(-215.264 -113.978)" fill="#dddadf"/>
        <path id="XMLID_2068_" d="M240,349.544a18.814,18.814,0,0,0,2.337.146l1.558-2.337-1.558-2.337H240Z" transform="translate(-202.602 -291.255)" fill="#eae7ea"/>
        <path id="XMLID_2069_" d="M257.337,349.544v-4.529H255v4.675A18.849,18.849,0,0,0,257.337,349.544Z" transform="translate(-215.264 -291.255)" fill="#dddadf"/>
        <path id="XMLID_2078_" d="M240,195.014v10.6l2.337,1.558,1.558-6.079-1.558-6.079Z" transform="translate(-202.602 -164.628)" fill="#263442"/>
        <path id="XMLID_2070_" d="M263.309,207.094l-5.971-3.981v-8.1H255v12.159l5.716,3.81Z" transform="translate(-215.264 -164.628)" fill="#22222b"/>
        <path id="XMLID_2022_" d="M4.675,39.75A35.1,35.1,0,0,1,39.736,4.689V.014a39.736,39.736,0,1,0,0,79.471l2.337-2.337L39.736,74.81A35.1,35.1,0,0,1,4.675,39.75Z" transform="translate(0 -0.014)" fill="#636363"/>
        <path id="XMLID_2072_" d="M286.843,74.575l6.481.4.285-4.666-14.339-.874-.89,13.168,4.664.315.347-5.139c16.625,22.878.375,55.636-28.39,55.636v4.675a39.738,39.738,0,0,0,31.843-63.509Z" transform="translate(-215.264 -58.613)" fill="#636363"/>
      </g>
    </g>
  </g>
</svg>
