<svg xmlns="http://www.w3.org/2000/svg" xmlns:xlink="http://www.w3.org/1999/xlink" width="1163.835" height="489.409" viewBox="0 0 1163.835 489.409">
  <defs>
    <filter id="Ellipse_145" x="0" y="218.618" width="86" height="86" filterUnits="userSpaceOnUse">
      <feOffset dx="5" dy="6" input="SourceAlpha"/>
      <feGaussianBlur stdDeviation="3" result="blur"/>
      <feFlood flood-opacity="0.161"/>
      <feComposite operator="in" in2="blur"/>
      <feComposite in="SourceGraphic"/>
    </filter>
    <filter id="Path_1975" x="579.031" y="75.777" width="139.477" height="139.822" filterUnits="userSpaceOnUse">
      <feOffset dx="5" dy="6" input="SourceAlpha"/>
      <feGaussianBlur stdDeviation="3" result="blur-2"/>
      <feFlood flood-opacity="0.161"/>
      <feComposite operator="in" in2="blur-2"/>
      <feComposite in="SourceGraphic"/>
    </filter>
    <clipPath id="clip-path">
      <path id="Path_1985" data-name="Path 1985" d="M403.853,89.292a60.739,60.739,0,1,1-60.737-60.911A60.824,60.824,0,0,1,403.853,89.292Z" transform="translate(-282.376 -28.381)" fill="#8c9527"/>
    </clipPath>
    <filter id="Path_1996" x="894.871" y="0" width="140.663" height="140.66" filterUnits="userSpaceOnUse">
      <feOffset dx="5" dy="6" input="SourceAlpha"/>
      <feGaussianBlur stdDeviation="3" result="blur-3"/>
      <feFlood flood-opacity="0.161"/>
      <feComposite operator="in" in2="blur-3"/>
      <feComposite in="SourceGraphic"/>
    </filter>
    <clipPath id="clip-path-2">
      <path id="Path_2009" data-name="Path 2009" d="M277.132,89.713A61.331,61.331,0,1,1,215.8,28.382,61.33,61.33,0,0,1,277.132,89.713Z" transform="translate(-154.469 -28.382)" fill="#60afba"/>
    </clipPath>
    <filter id="Path_2019" x="220.778" y="316.81" width="139.289" height="139.29" filterUnits="userSpaceOnUse">
      <feOffset dx="5" dy="6" input="SourceAlpha"/>
      <feGaussianBlur stdDeviation="3" result="blur-4"/>
      <feFlood flood-opacity="0.161"/>
      <feComposite operator="in" in2="blur-4"/>
      <feComposite in="SourceGraphic"/>
    </filter>
    <clipPath id="clip-path-3">
      <path id="Path_2032" data-name="Path 2032" d="M403.665,218.838a60.645,60.645,0,1,1-60.643-60.646A60.643,60.643,0,0,1,403.665,218.838Z" transform="translate(-282.376 -158.192)" fill="#988bc1"/>
    </clipPath>
    <filter id="Path_2010" x="1014.482" y="194.898" width="149.353" height="150.33" filterUnits="userSpaceOnUse">
      <feOffset dx="5" dy="6" input="SourceAlpha"/>
      <feGaussianBlur stdDeviation="3" result="blur-5"/>
      <feFlood flood-opacity="0.161"/>
      <feComposite operator="in" in2="blur-5"/>
      <feComposite in="SourceGraphic"/>
    </filter>
    <clipPath id="clip-path-4">
      <path id="Path_2018" data-name="Path 2018" d="M156.574,94.548c0,36.541-29.4,66.164-65.675,66.164S25.221,131.089,25.221,94.548,54.626,28.382,90.9,28.382,156.574,58,156.574,94.548Z" transform="translate(-25.221 -28.382)" fill="#988bc1"/>
    </clipPath>
    <filter id="Path_1965" x="848.871" y="376.133" width="113.278" height="113.276" filterUnits="userSpaceOnUse">
      <feOffset dx="5" dy="6" input="SourceAlpha"/>
      <feGaussianBlur stdDeviation="3" result="blur-6"/>
      <feFlood flood-opacity="0.161"/>
      <feComposite operator="in" in2="blur-6"/>
      <feComposite in="SourceGraphic"/>
    </filter>
    <clipPath id="clip-path-5">
      <path id="Path_1974" data-name="Path 1974" d="M249.747,205.832a47.639,47.639,0,1,1-47.639-47.638A47.637,47.637,0,0,1,249.747,205.832Z" transform="translate(-154.469 -158.194)" fill="#fca01f"/>
    </clipPath>
    <filter id="Path_1986" x="280.623" y="40.729" width="107.679" height="107.68" filterUnits="userSpaceOnUse">
      <feOffset dx="5" dy="6" input="SourceAlpha"/>
      <feGaussianBlur stdDeviation="3" result="blur-7"/>
      <feFlood flood-opacity="0.161"/>
      <feComposite operator="in" in2="blur-7"/>
      <feComposite in="SourceGraphic"/>
    </filter>
    <clipPath id="clip-path-6">
      <path id="Path_1995" data-name="Path 1995" d="M114.9,203.032a44.839,44.839,0,1,1-44.838-44.841A44.838,44.838,0,0,1,114.9,203.032Z" transform="translate(-25.221 -158.191)" fill="#f9d08f"/>
    </clipPath>
  </defs>
  <g id="Cutsomer_reivew" data-name="Cutsomer reivew" transform="translate(-317 -3373.382)">
    <path id="Comment_colon" data-name="Comment colon" d="M20.2,13.721V0H32V10.934c0,5.789-.6,10.077-2,12.864a17.027,17.027,0,0,1-8.2,7.933L19,27.014a10.735,10.735,0,0,0,5-4.5c1.2-1.93,1.8-4.931,1.8-8.79Zm-19.2,0V0H12.8V10.934c0,6-.6,10.077-2,12.864A17.028,17.028,0,0,1,2.6,31.73L0,27.014a10.735,10.735,0,0,0,5-4.5c1-1.93,1.6-4.931,1.8-8.79Z" transform="translate(772 3579.561)" fill="#434342" opacity="0.58"/>
    <text id="Very_good_and_amazing_app..Easy_to_use_and_find_perfect_saloon_for_me_..Good_work_" data-name="Very good and amazing app..Easy to use and find perfect saloon for me ..Good work😊" transform="translate(806 3618)" fill="#636363" font-size="16" font-family="Roboto-Bold, Roboto" font-weight="700" opacity="0.71"><tspan x="10.531" y="17">Very good and amazing app..Easy to use </tspan><tspan x="2.176" y="37">and find perfect saloon for me ..Good work</tspan><tspan x="144.855" y="57" font-family="SegoeUIEmoji, Segoe UI Emoji" font-weight="400">😊</tspan></text>
    <g transform="matrix(1, 0, 0, 1, 317, 3373.38)" filter="url(#Ellipse_145)">
      <circle id="Ellipse_145-2" data-name="Ellipse 145" cx="34" cy="34" r="34" transform="translate(4 221.62)" fill="#ffedb3"/>
    </g>
    <text id="Pooja_Bahot" data-name="Pooja Bahot" transform="translate(915 3706)" fill="#636363" font-size="16" font-family="Roboto-Bold, Roboto" font-weight="700"><tspan x="0" y="17">Pooja Bahot</tspan></text>
    <g id="Customer_review_faces" data-name="Customer review faces">
      <g id="Group_3601" data-name="Group 3601" transform="translate(617.655 3423.778)">
        <g id="Group_3600" data-name="Group 3600" transform="translate(282.376 28.381)">
          <g transform="matrix(1, 0, 0, 1, -583.03, -78.78)" filter="url(#Path_1975)">
            <path id="Path_1975-2" data-name="Path 1975" d="M403.853,89.292a60.739,60.739,0,1,1-60.737-60.911A60.824,60.824,0,0,1,403.853,89.292Z" transform="translate(300.66 50.4)" fill="#8c9527"/>
          </g>
          <g id="Group_3599" data-name="Group 3599" clip-path="url(#clip-path)">
            <g id="Group_3598" data-name="Group 3598" transform="translate(19.503 7.976)">
              <path id="Path_1976" data-name="Path 1976" d="M367.33,64.959c-3.227,1.079.377,13.947,4.09,8.78.242,1.9-.675,3.883-2.778,3.782-.506,2.173,2.7,1.761,2.765,4.306.064,2.513-2.285,2.289-2.293,4.6a3.244,3.244,0,0,0,4.332,2.875c2.367-.841,2.547-2.893,3.058-4.7a6.42,6.42,0,0,1,.286,6.381c1.494.184,2.267-1.163,2.319-2.49a4.188,4.188,0,0,1-.28,4.281c.576-.126,1.38.176,1.968.082.379,2.231-1.511,4.73-3.267,6.032-1.9,1.406-5.7,1.094-2.562,3.7,2.312,1.925,4.263.818,4.338,4.537.055,2.663-1.213,5.152-4.033,5.068a.855.855,0,0,0-.19-.449c2.056,2.367,1.485,6.262-.637,8.324.431-1.392.654-3.369-.7-4.228.186,1.075.037,2.188-1.027,2.573.433,5-8.932,5.255-12.275,5.578-2.541.243-4.881,1.295-7.391,1.545a49.45,49.45,0,0,1-7.353-.308c-.228-10.339-5.722-19.7-9.41-29.169-1.664-4.275.789-6.836,3.824-10.162,4.366-4.788,9.126-8.94,12.939-14.044Z" transform="translate(-300.118 -35.043)" fill="#261513"/>
              <path id="Path_1977" data-name="Path 1977" d="M315.187,64.959c3.226,1.079-.377,13.947-4.09,8.78-.242,1.9.672,3.883,2.776,3.782.508,2.173-2.7,1.761-2.763,4.306-.065,2.513,2.284,2.289,2.292,4.6a3.244,3.244,0,0,1-4.331,2.875c-2.368-.841-2.549-2.893-3.061-4.7a6.425,6.425,0,0,0-.285,6.381c-1.493.184-2.266-1.163-2.319-2.49a4.2,4.2,0,0,0,.279,4.281c-.574-.126-1.378.176-1.966.082-.378,2.231,1.512,4.73,3.267,6.032,1.9,1.406,5.7,1.094,2.562,3.7-2.311,1.925-4.264.818-4.341,4.537-.055,2.663,1.214,5.152,4.035,5.068a.863.863,0,0,1,.19-.449c-2.057,2.367-1.485,6.262.637,8.324-.431-1.392-.656-3.369.694-4.228-.183,1.075-.036,2.188,1.028,2.573-.432,5,8.933,5.255,12.276,5.578,2.541.243,4.882,1.295,7.392,1.545a49.4,49.4,0,0,0,7.35-.308c.23-10.339,5.725-19.7,9.413-29.169,1.664-4.275-.79-6.836-3.823-10.162-4.368-4.788-9.127-8.94-12.939-14.044Z" transform="translate(-301.242 -35.043)" fill="#261513"/>
              <path id="Path_1978" data-name="Path 1978" d="M375.438,122.087c-3.817-4.771-34.028-15.25-34.028-15.25s-29.58,11.589-34.03,15.25-6.123,26.8-6.123,26.8h79.428S379.253,126.858,375.438,122.087Z" transform="translate(-301.256 -33.54)" fill="#cc3446"/>
              <path id="Path_1979" data-name="Path 1979" d="M349.8,112.731s-1.157,5.622-9.358,5.622-9.356-5.622-9.356-5.622a12.523,12.523,0,0,0,0-9.884c-2.282-5.336,21.5-6.418,18.713,0S349.8,112.731,349.8,112.731Z" transform="translate(-300.278 -33.842)" fill="#d79563"/>
              <path id="Path_1980" data-name="Path 1980" d="M360.512,93.887c.594-8.006,5.661-19.549,5.661-19.549,7.207-16.162-4.36-39.777-14.237-33.039-10.579-14.15-46.09,1.695-35.395,32.819,0,0,4.392,10.731,4.816,18.652s14.618,15.531,19.177,15.787S359.918,101.895,360.512,93.887Z" transform="translate(-300.817 -36.08)" fill="#261513"/>
              <path id="Path_1981" data-name="Path 1981" d="M366.008,77.68c0,4.234-2.993,10.052-5.011,10.052s-3.654-3.432-3.654-7.668A9.1,9.1,0,0,1,361,72.4C362.951,70.864,366.008,72.4,366.008,77.68Z" transform="translate(-299.407 -34.797)" fill="#f9ab78"/>
              <path id="Path_1982" data-name="Path 1982" d="M315.108,77.68c0,4.234,2.995,10.052,5.011,10.052s3.652-3.432,3.652-7.668a9.1,9.1,0,0,0-3.652-7.667C318.166,70.864,315.108,72.4,315.108,77.68Z" transform="translate(-300.799 -34.797)" fill="#f9ab78"/>
              <path id="Path_1983" data-name="Path 1983" d="M341.154,45.074c-14.183,0-20.455,9.965-20.455,24.833V88.522c0,12.949,14.918,24.025,19.632,24.025S361.61,99.6,361.61,87.33V69.907C361.61,55.039,355.339,45.074,341.154,45.074Z" transform="translate(-300.615 -35.757)" fill="#f9ab78"/>
              <path id="Path_1984" data-name="Path 1984" d="M361.66,80.579l.6-7.722c3.091-15.029-6.738-29.568-20.921-29.568s-25.181,15.862-21.387,30.891l.8,8.782a10.545,10.545,0,0,0,3.207-6.474c.631-5.538,4.643-10.952,12.4-12.437,12.233-2.343,15.67-9.7,15.67-9.7a59.329,59.329,0,0,1,5.142,9.7c1.655,3.875,0,6.25,1.43,10.121A33.558,33.558,0,0,0,361.66,80.579Z" transform="translate(-300.665 -35.821)" fill="#261513"/>
            </g>
          </g>
        </g>
      </g>
      <g id="Group_3610" data-name="Group 3610" transform="translate(1061.402 3348)">
        <g id="Group_3609" data-name="Group 3609" transform="translate(154.469 28.382)">
          <g transform="matrix(1, 0, 0, 1, -898.87, -3)" filter="url(#Path_1996)">
            <path id="Path_1996-2" data-name="Path 1996" d="M277.132,89.713A61.331,61.331,0,1,1,215.8,28.382,61.33,61.33,0,0,1,277.132,89.713Z" transform="translate(744.4 -25.38)" fill="#60afba"/>
          </g>
          <g id="Group_3608" data-name="Group 3608" clip-path="url(#clip-path-2)">
            <g id="Group_3607" data-name="Group 3607" transform="translate(19.05 7.94)">
              <path id="Path_1997" data-name="Path 1997" d="M247.634,122.192c-3.854-4.807-34.36-15.357-34.36-15.357s-29.868,11.671-34.364,15.357-6.177,26.989-6.177,26.989h80.2S251.486,127,247.634,122.192Z" transform="translate(-172.733 -32.945)" fill="#002a50"/>
              <path id="Path_1998" data-name="Path 1998" d="M221.452,112.828a7.25,7.25,0,0,1-4.26,4.682c-1.3.583-3,8.019-5.19,8.019-2.313,0-4.075-7.482-5.407-8.12a7.217,7.217,0,0,1-4.039-4.581,12.58,12.58,0,0,0,0-9.951c-2.3-5.374,21.713-6.464,18.9,0S221.452,112.828,221.452,112.828Z" transform="translate(-171.456 -33.307)" fill="#d79563"/>
              <path id="Path_1999" data-name="Path 1999" d="M234.262,94.121c1.76-7.894,3.883-19.517,3.883-19.517,7.276-16.274-.27-40.805-14.378-33.265-17.46-15.946-45.082,6.356-35.739,33.044a187.511,187.511,0,0,0,2.947,20c2.043,8.747,17.12,15.25,21.723,15.506S232.4,102.484,234.262,94.121Z" transform="translate(-172.156 -35.994)" fill="#1d100f"/>
              <path id="Path_2000" data-name="Path 2000" d="M237.566,77.72c0,4.263-3.023,10.123-5.06,10.123s-3.69-3.459-3.69-7.722a9.153,9.153,0,0,1,3.69-7.719C234.479,70.858,237.566,72.4,237.566,77.72Z" transform="translate(-170.319 -34.451)" fill="#f9ab78"/>
              <path id="Path_2001" data-name="Path 2001" d="M186.582,77.72c0,4.263,3.024,10.123,5.058,10.123s3.692-3.459,3.692-7.722A9.154,9.154,0,0,0,191.64,72.4C189.669,70.858,186.582,72.4,186.582,77.72Z" transform="translate(-172.137 -34.451)" fill="#f9ab78"/>
              <path id="Path_2002" data-name="Path 2002" d="M212.828,45.073c-14.324,0-20.656,10.036-20.656,25V88.822c0,13.038,15.063,24.188,19.823,24.188s21.486-13.037,21.486-25.389V70.077C233.481,55.109,227.15,45.073,212.828,45.073Z" transform="translate(-171.896 -35.603)" fill="#f9ab78"/>
              <path id="Path_2003" data-name="Path 2003" d="M233.511,80.815l1.29-10.922c0-14.969-7.622-26.122-21.944-26.122s-21.392,11.153-21.392,26.122l.736,13.323a13.986,13.986,0,0,0,1.547-7.08c-.344-9.609,6.381-10.466,14.216-11.963,12.353-2.358,15.824-9.766,15.824-9.766s4.048,1.372,6.635,7.408c1.673,3.9,2.063,9.881,1.934,12.325A26.333,26.333,0,0,0,233.511,80.815Z" transform="translate(-171.927 -35.66)" fill="#1d100f"/>
              <g id="Group_3606" data-name="Group 3606" transform="translate(18.542 34.234)">
                <path id="Path_2004" data-name="Path 2004" d="M200.688,68.815c-5.542,0-9.007,2.06-9.007,4.246,0,3.474,1.268,9.114,6.77,9.78,5.324.643,12.274-1.287,12.274-10.165C210.725,70.617,206.232,68.815,200.688,68.815Zm-1.84,13.024c-4.711-.568-5.8-5.4-5.8-8.37,0-1.872,2.965-3.635,7.71-3.635s8.593,1.543,8.593,3.3C209.355,80.739,203.408,82.39,198.848,81.839Z" transform="translate(-190.46 -68.815)" fill="#9a0007"/>
                <path id="Path_2005" data-name="Path 2005" d="M213.447,74.831a1.9,1.9,0,0,0-2.089-1.352c-1.253,0-1.572,1.482-1.572,1.482l-.663-3.908a3.368,3.368,0,0,0,1.526.788,6.047,6.047,0,0,0,1.675,0,2.47,2.47,0,0,0,1.123-.788Z" transform="translate(-189.709 -68.719)" fill="#9a0007"/>
                <path id="Path_2006" data-name="Path 2006" d="M192.5,76.934s-1.994-.143-1.994-1.165V72.689c0-1.608,1.994-1.1,1.994-1.1Z" transform="translate(-190.51 -68.699)" fill="#9a0007"/>
                <path id="Path_2007" data-name="Path 2007" d="M212.413,72.676c0,8.877,6.948,10.807,12.274,10.165,5.5-.665,6.769-6.305,6.769-9.78,0-2.186-3.464-4.246-9.008-4.246S212.413,70.617,212.413,72.676Zm1.372.46c0-1.761,3.846-3.3,8.591-3.3s7.709,1.763,7.709,3.635c0,2.974-1.084,7.8-5.794,8.37C219.733,82.39,213.785,80.739,213.785,73.136Z" transform="translate(-189.567 -68.815)" fill="#9a0007"/>
                <path id="Path_2008" data-name="Path 2008" d="M229.929,76.934s1.994-.143,1.994-1.165V72.689c0-1.608-1.994-1.1-1.994-1.1Z" transform="translate(-188.813 -68.699)" fill="#9a0007"/>
              </g>
            </g>
          </g>
        </g>
      </g>
      <g id="Group_3619" data-name="Group 3619" transform="translate(259.402 3535)">
        <g id="Group_3618" data-name="Group 3618" transform="translate(282.376 158.192)">
          <g transform="matrix(1, 0, 0, 1, -224.78, -319.81)" filter="url(#Path_2019)">
            <path id="Path_2019-2" data-name="Path 2019" d="M403.665,218.838a60.645,60.645,0,1,1-60.643-60.646A60.643,60.643,0,0,1,403.665,218.838Z" transform="translate(-57.6 161.62)" fill="#988bc1"/>
          </g>
          <g id="Group_3617" data-name="Group 3617" clip-path="url(#clip-path-3)">
            <g id="Group_3615" data-name="Group 3615" transform="translate(20.037 10.295)">
              <path id="Path_2020" data-name="Path 2020" d="M313.458,238.8c5.084,11.478,46.862,12.65,52.828,1.247-7-4.768-1.474-22.784-1.474-22.784l1.88-13.35c4.254-17.058-10.442-42.663-24.973-33.631-8.5-8.418-29.556,9.58-24.583,33.413l.095,10.908S321.49,234.758,313.458,238.8Z" transform="translate(-301.437 -168.174)" fill="#341e13"/>
              <path id="Path_2021" data-name="Path 2021" d="M375.871,251.83c-3.811-4.751-33.976-15.182-33.976-15.182s-29.534,11.538-33.978,15.182-6.114,26.688-6.114,26.688H381.11S379.681,256.584,375.871,251.83Z" transform="translate(-301.803 -166.025)" fill="#5067ad"/>
              <path id="Path_2022" data-name="Path 2022" d="M350.313,242.479s-1.155,5.6-9.343,5.6-9.341-5.6-9.341-5.6a12.437,12.437,0,0,0,0-9.84c-2.277-5.314,21.47-6.39,18.684,0S350.313,242.479,350.313,242.479Z" transform="translate(-300.872 -166.289)" fill="#d79563"/>
              <path id="Path_2023" data-name="Path 2023" d="M366.542,207.464c0,4.217-2.989,10.011-5,10.011s-3.647-3.419-3.647-7.635a9.058,9.058,0,0,1,3.647-7.633C363.489,200.681,366.542,202.206,366.542,207.464Z" transform="translate(-300.043 -167.124)" fill="#f9ab78"/>
              <path id="Path_2024" data-name="Path 2024" d="M315.654,207.464c0,4.217,2.991,10.011,5,10.011s3.647-3.419,3.647-7.635a9.058,9.058,0,0,0-3.647-7.633C318.709,200.681,315.654,202.206,315.654,207.464Z" transform="translate(-301.368 -167.124)" fill="#f9ab78"/>
              <path id="Path_2025" data-name="Path 2025" d="M341.67,174.885c-14.164,0-20.424,9.923-20.424,24.724v18.535c0,12.891,14.9,23.919,19.6,23.919s21.246-12.893,21.246-25.107V199.609C362.094,184.808,355.832,174.885,341.67,174.885Z" transform="translate(-301.193 -167.963)" fill="#f9ab78"/>
              <path id="Path_2026" data-name="Path 2026" d="M362.141,210.227l.6-7.686c3.086-14.963-6.727-29.441-20.888-29.441s-25.144,15.795-21.354,30.757l.8,8.744a10.481,10.481,0,0,0,3.2-6.445s15.924-8.09,16.881-23.111c5.076,12.69,17.939,21.909,17.939,21.909C360,209.245,362.141,210.227,362.141,210.227Z" transform="translate(-301.24 -168.019)" fill="#341e13"/>
            </g>
            <g id="Group_3616" data-name="Group 3616" transform="translate(39.655 43.428)">
              <path id="Path_2027" data-name="Path 2027" d="M330.9,200.3c-5.481,0-8.907,2.037-8.907,4.2,0,3.436,1.253,9.011,6.695,9.67,5.265.635,12.134-1.273,12.134-10.051C340.824,202.08,336.383,200.3,330.9,200.3Zm-1.821,12.878c-4.658-.563-5.73-5.336-5.73-8.277,0-1.851,2.932-3.6,7.624-3.6s8.5,1.525,8.5,3.267C339.471,212.09,333.589,213.721,329.081,213.177Z" transform="translate(-320.787 -200.299)" fill="#9a0007"/>
              <path id="Path_2028" data-name="Path 2028" d="M343.713,206.273a1.884,1.884,0,0,0-2.067-1.337c-1.239,0-1.553,1.466-1.553,1.466l-.657-3.865a3.342,3.342,0,0,0,1.51.779,6.011,6.011,0,0,0,1.655,0,2.442,2.442,0,0,0,1.112-.779Z" transform="translate(-320.24 -200.229)" fill="#9a0007"/>
              <path id="Path_2029" data-name="Path 2029" d="M322.8,208.356s-1.972-.14-1.972-1.151V204.16c0-1.591,1.972-1.084,1.972-1.084Z" transform="translate(-320.824 -200.214)" fill="#9a0007"/>
              <path id="Path_2030" data-name="Path 2030" d="M342.726,204.117c0,8.778,6.87,10.686,12.136,10.051,5.443-.659,6.694-6.235,6.694-9.67,0-2.162-3.425-4.2-8.9-4.2S342.726,202.08,342.726,204.117Zm1.356.455c0-1.742,3.8-3.267,8.493-3.267s7.625,1.744,7.625,3.6c0,2.94-1.073,7.714-5.729,8.277C349.963,213.721,344.082,212.09,344.082,204.572Z" transform="translate(-320.137 -200.299)" fill="#9a0007"/>
              <path id="Path_2031" data-name="Path 2031" d="M360.243,208.356s1.972-.14,1.972-1.151V204.16c0-1.591-1.972-1.084-1.972-1.084Z" transform="translate(-319.587 -200.214)" fill="#9a0007"/>
            </g>
          </g>
        </g>
      </g>
      <g id="Group_3614" data-name="Group 3614" transform="translate(1310.261 3542.898)">
        <g id="Group_3613" data-name="Group 3613" transform="translate(25.221 28.382)">
          <g transform="matrix(1, 0, 0, 1, -1018.48, -197.9)" filter="url(#Path_2010)">
            <path id="Path_2010-2" data-name="Path 2010" d="M156.574,94.548c0,36.541-29.4,66.164-65.675,66.164S25.221,131.089,25.221,94.548,54.626,28.382,90.9,28.382,156.574,58,156.574,94.548Z" transform="translate(993.26 169.52)" fill="#988bc1"/>
          </g>
          <g id="Group_3612" data-name="Group 3612" clip-path="url(#clip-path-4)">
            <g id="Group_3611" data-name="Group 3611" transform="translate(21.7 8.663)">
              <path id="Path_2011" data-name="Path 2011" d="M112.549,99.877c.642-8.7,1.7-22.24,1.7-22.24,7.793-17.557-4.717-43.208-15.4-35.887C87.415,26.377,49.015,43.591,60.58,77.4a108.213,108.213,0,0,1-1.53,21.843c-2.9,15.022-8.118,31.243-3.291,34.963,6.794,5.238,56.791,5.823,59.836,1.908C120.533,129.769,111.906,108.576,112.549,99.877Z" transform="translate(-43.58 -36.08)" fill="#dd1a1e"/>
              <path id="Path_2012" data-name="Path 2012" d="M124.861,123.4c-4.127-5.184-36.795-16.565-36.795-16.565s-31.984,12.588-36.8,16.565-6.619,29.117-6.619,29.117h85.886S128.986,128.586,124.861,123.4Z" transform="translate(-44.649 -27.216)" fill="#132e2a"/>
              <path id="Path_2013" data-name="Path 2013" d="M94.721,113.963s-1.25,6.108-10.12,6.108-10.115-6.108-10.115-6.108a13.657,13.657,0,0,0,0-10.735c-2.466-5.8,23.252-6.973,20.235,0S94.721,113.963,94.721,113.963Z" transform="translate(-41.179 -28.27)" fill="#d79563"/>
              <path id="Path_2014" data-name="Path 2014" d="M110.105,78.184c0,4.6-3.237,10.921-5.418,10.921s-3.952-3.73-3.952-8.33a9.9,9.9,0,0,1,3.952-8.327C106.8,70.782,110.105,72.447,110.105,78.184Z" transform="translate(-38.089 -31.601)" fill="#f9ab78"/>
              <path id="Path_2015" data-name="Path 2015" d="M58.5,78.184c0,4.6,3.24,10.921,5.421,10.921s3.948-3.73,3.948-8.33a9.9,9.9,0,0,0-3.948-8.327C61.807,70.782,58.5,72.447,58.5,78.184Z" transform="translate(-43.029 -31.601)" fill="#f9ab78"/>
              <path id="Path_2016" data-name="Path 2016" d="M86.21,45.073c-15.339,0-22.119,10.827-22.119,26.975V92.272c0,14.065,16.132,26.1,21.228,26.1s23.008-14.066,23.008-27.391V72.048C108.327,55.9,101.547,45.073,86.21,45.073Z" transform="translate(-42.375 -34.954)" fill="#f9ab78"/>
              <path id="Path_2017" data-name="Path 2017" d="M108.5,83.8l.647-8.387c3.342-16.325-7.285-32.12-22.621-32.12S59.3,60.521,63.4,76.846l.865,9.54a11.459,11.459,0,0,0,3.467-7.032c.4-3.464,1.719-17.463,1.719-17.463l1.683,8.265,18.5,1.224L92.8,64.838l1.271,6.838,5.88.386,3.786-11.442s.528,9.935,1.706,17.423C106.18,82.724,108.5,83.8,108.5,83.8Z" transform="translate(-42.551 -35.177)" fill="#dd1a1e"/>
            </g>
          </g>
        </g>
      </g>
      <g id="Group_3597" data-name="Group 3597" transform="translate(1015.402 3594.321)">
        <g id="Group_3596" data-name="Group 3596" transform="translate(154.469 158.194)">
          <g transform="matrix(1, 0, 0, 1, -852.87, -379.13)" filter="url(#Path_1965)">
            <path id="Path_1965-2" data-name="Path 1965" d="M249.747,205.832a47.639,47.639,0,1,1-47.639-47.638A47.637,47.637,0,0,1,249.747,205.832Z" transform="translate(698.4 220.94)" fill="#fca01f" opacity="0.6"/>
          </g>
          <g id="Group_3595" data-name="Group 3595" clip-path="url(#clip-path-5)">
            <g id="Group_3594" data-name="Group 3594" transform="translate(13.548 6.296)">
              <path id="Path_1966" data-name="Path 1966" d="M233.354,250.18c-3.2-3.734-28.515-11.928-28.515-11.928s-24.788,9.064-28.518,11.928-5.13,20.964-5.13,20.964h66.562S236.554,253.912,233.354,250.18Z" transform="translate(-171.191 -179.686)" fill="#003b62"/>
              <path id="Path_1967" data-name="Path 1967" d="M221.547,242.91l-11.526,4.4-11.529-4.4v-5.878a39.427,39.427,0,0,1,11.81-1.852,33.577,33.577,0,0,1,11.245,1.852Z" transform="translate(-176.373 -179.103)" fill="#002c47"/>
              <path id="Path_1968" data-name="Path 1968" d="M220.22,236.246l-9.793,4.4-9.795-4.4v-7.728H220.22Z" transform="translate(-176.779 -177.838)" fill="#d79563"/>
              <path id="Path_1969" data-name="Path 1969" d="M227.974,201.476v-10.63c0-14.9-5.969-24.882-19.465-24.882s-19.464,9.986-19.464,24.882v10.63a57.4,57.4,0,0,0,5.686-5.53c1.224-1.388-2.952-9.018-1.68-12.225,1.546-3.89,5.5-6.659,5.5-6.659s1.641,1.9,8.893,2.562c7.435.682,10.021-3.416,10.021-3.416s.63,17.006,2.291,19.24A16.725,16.725,0,0,0,227.974,201.476Z" transform="translate(-174.58 -165.965)"/>
              <path id="Path_1970" data-name="Path 1970" d="M236.7,203.216c0,3.312-2.348,7.863-3.932,7.863s-2.865-2.684-2.865-6a7.121,7.121,0,0,1,2.865-6C234.307,197.886,236.7,199.085,236.7,203.216Z" transform="translate(-182.336 -172.168)" fill="#f9ab78"/>
              <path id="Path_1971" data-name="Path 1971" d="M187.674,203.216c0,3.312,2.347,7.863,3.93,7.863s2.866-2.684,2.866-6a7.112,7.112,0,0,0-2.866-6C190.072,197.886,187.674,199.085,187.674,203.216Z" transform="translate(-174.32 -172.168)" fill="#f9ab78"/>
              <path id="Path_1972" data-name="Path 1972" d="M209.31,171.885c-11.126,0-16.043,7.795-16.043,19.421v14.56c0,2.128.779,7.638,1.6,9.328C197.5,220.627,205.3,226.653,209,226.653s12.477-5.959,14.556-11.125a44.2,44.2,0,0,0,1.8-10.594V191.306C225.354,179.68,220.433,171.885,209.31,171.885Z" transform="translate(-175.381 -167.089)" fill="#f9ab78"/>
              <path id="Path_1973" data-name="Path 1973" d="M225.183,199.092l1-6.038c.706-13.728-5.919-23.867-17.042-23.867s-17.178,11.608-16.749,23.867l.706,6.038s.026-4.532,2.265-6.93c1.01-1.085-.013-4.427,1.036-6.93a13.76,13.76,0,0,1,4.532-5.2s1.353,1.479,7.328,2c6.131.534,8.262-2.664,8.262-2.664s3.655.276,5.664,4.964c1.3,3.03.3,4.429.2,6.329S225.183,199.092,225.183,199.092Z" transform="translate(-175.211 -166.577)"/>
            </g>
          </g>
        </g>
      </g>
      <g id="Group_3605" data-name="Group 3605" transform="translate(576.402 3258.92)">
        <g id="Group_3604" data-name="Group 3604" transform="translate(25.221 158.191)">
          <g transform="matrix(1, 0, 0, 1, -284.62, -43.73)" filter="url(#Path_1986)">
            <path id="Path_1986-2" data-name="Path 1986" d="M114.9,203.032a44.839,44.839,0,1,1-44.838-44.841A44.838,44.838,0,0,1,114.9,203.032Z" transform="translate(259.4 -114.46)" fill="#f9d08f"/>
          </g>
          <g id="Group_3603" data-name="Group 3603" clip-path="url(#clip-path-6)">
            <g id="Group_3602" data-name="Group 3602" transform="translate(14.912 5.806)">
              <path id="Path_1987" data-name="Path 1987" d="M99.539,247.872c-2.817-3.512-25.123-11.224-25.123-11.224S52.583,245.177,49.3,247.872,44.776,267.6,44.776,267.6h58.637S102.356,251.386,99.539,247.872Z" transform="translate(-44.776 -182.624)" fill="#1f2426"/>
              <path id="Path_1988" data-name="Path 1988" d="M88.376,238.769s-.855,4.139-6.909,4.139-6.906-4.139-6.906-4.139a9.2,9.2,0,0,0,0-7.277c-1.684-3.929,15.874-4.725,13.815,0S88.376,238.769,88.376,238.769Z" transform="translate(-51.821 -180.628)" fill="#d79563"/>
              <path id="Path_1989" data-name="Path 1989" d="M92.031,208.426c.439-5.895,4.18-14.392,4.18-14.392,5.321-11.9-.2-29.834-10.512-24.321-12.765-11.658-32.96,4.647-26.129,24.159,0,0,3.24,7.9,3.554,13.733S73.914,225.1,77.281,225.282,91.591,214.32,92.031,208.426Z" transform="translate(-47.962 -165.804)" fill="#341e1e"/>
              <path id="Path_1990" data-name="Path 1990" d="M107.26,205.949c0,3.117-2.212,7.4-3.7,7.4s-2.7-2.529-2.7-5.645a6.7,6.7,0,0,1,2.7-5.644C105,200.932,107.26,202.06,107.26,205.949Z" transform="translate(-58.092 -174.313)" fill="#f9ab78"/>
              <path id="Path_1991" data-name="Path 1991" d="M58.626,205.949c0,3.117,2.211,7.4,3.7,7.4s2.7-2.529,2.7-5.645a6.7,6.7,0,0,0-2.7-5.644C60.883,200.932,58.626,202.06,58.626,205.949Z" transform="translate(-48.064 -174.313)" fill="#f9ab78"/>
              <path id="Path_1992" data-name="Path 1992" d="M79.321,174.883c-10.473,0-15.1,7.338-15.1,18.282v13.7c0,9.532,11.012,17.684,14.491,17.684s15.709-9.532,15.709-18.56V193.165C94.421,182.221,89.792,174.883,79.321,174.883Z" transform="translate(-49.392 -167.96)" fill="#f9ab78"/>
              <path id="Path_1993" data-name="Path 1993" d="M94.088,200.667l.941-7.986c0-10.945-5.57-19.1-16.041-19.1s-16.168,9.328-16.168,20.273l1.067,8.565a5.841,5.841,0,0,0,2.366-4.765c-.251-7.026,3.428-8.062,9.156-9.156,9.03-1.723,11.568-7.142,11.568-7.142s2.962,1,4.852,5.418c1.224,2.851-.376,5.957-.471,7.743S94.088,200.667,94.088,200.667Z" transform="translate(-49.06 -167.651)" fill="#341e1e"/>
              <path id="Path_1994" data-name="Path 1994" d="M84.316,232.525a12,12,0,0,1-3.178,0c1.694,2.6,0,6.286,0,6.286h3.178A8.516,8.516,0,0,1,84.316,232.525Z" transform="translate(-53.409 -181.645)" fill="#341e1e"/>
            </g>
          </g>
        </g>
      </g>
    </g>
  </g>
</svg>
