<svg xmlns="http://www.w3.org/2000/svg" xmlns:xlink="http://www.w3.org/1999/xlink" width="139.477" height="139.822" viewBox="0 0 139.477 139.822">
  <defs>
    <filter id="Path_1975" x="0" y="0" width="139.477" height="139.822" filterUnits="userSpaceOnUse">
      <feOffset dx="5" dy="6" input="SourceAlpha"/>
      <feGaussianBlur stdDeviation="3" result="blur"/>
      <feFlood flood-opacity="0.161"/>
      <feComposite operator="in" in2="blur"/>
      <feComposite in="SourceGraphic"/>
    </filter>
    <clipPath id="clip-path">
      <path id="Path_1985" data-name="Path 1985" d="M403.853,89.292a60.739,60.739,0,1,1-60.737-60.911A60.824,60.824,0,0,1,403.853,89.292Z" transform="translate(-282.376 -28.381)" fill="#8c9527"/>
    </clipPath>
  </defs>
  <g id="Female_avtar" data-name="Female avtar" transform="translate(-278.376 -25.381)">
    <g id="Group_3600" data-name="Group 3600" transform="translate(282.376 28.381)">
      <g transform="matrix(1, 0, 0, 1, -4, -3)" filter="url(#Path_1975)">
        <path id="Path_1975-2" data-name="Path 1975" d="M403.853,89.292a60.739,60.739,0,1,1-60.737-60.911A60.824,60.824,0,0,1,403.853,89.292Z" transform="translate(-278.38 -25.38)" fill="#8c9527"/>
      </g>
      <g id="Group_3599" data-name="Group 3599" clip-path="url(#clip-path)">
        <g id="Group_3598" data-name="Group 3598" transform="translate(19.503 7.976)">
          <path id="Path_1976" data-name="Path 1976" d="M367.33,64.959c-3.227,1.079.377,13.947,4.09,8.78.242,1.9-.675,3.883-2.778,3.782-.506,2.173,2.7,1.761,2.765,4.306.064,2.513-2.285,2.289-2.293,4.6a3.244,3.244,0,0,0,4.332,2.875c2.367-.841,2.547-2.893,3.058-4.7a6.42,6.42,0,0,1,.286,6.381c1.494.184,2.267-1.163,2.319-2.49a4.188,4.188,0,0,1-.28,4.281c.576-.126,1.38.176,1.968.082.379,2.231-1.511,4.73-3.267,6.032-1.9,1.406-5.7,1.094-2.562,3.7,2.312,1.925,4.263.818,4.338,4.537.055,2.663-1.213,5.152-4.033,5.068a.855.855,0,0,0-.19-.449c2.056,2.367,1.485,6.262-.637,8.324.431-1.392.654-3.369-.7-4.228.186,1.075.037,2.188-1.027,2.573.433,5-8.932,5.255-12.275,5.578-2.541.243-4.881,1.295-7.391,1.545a49.45,49.45,0,0,1-7.353-.308c-.228-10.339-5.722-19.7-9.41-29.169-1.664-4.275.789-6.836,3.824-10.162,4.366-4.788,9.126-8.94,12.939-14.044Z" transform="translate(-300.118 -35.043)" fill="#261513"/>
          <path id="Path_1977" data-name="Path 1977" d="M315.187,64.959c3.226,1.079-.377,13.947-4.09,8.78-.242,1.9.672,3.883,2.776,3.782.508,2.173-2.7,1.761-2.763,4.306-.065,2.513,2.284,2.289,2.292,4.6a3.244,3.244,0,0,1-4.331,2.875c-2.368-.841-2.549-2.893-3.061-4.7a6.425,6.425,0,0,0-.285,6.381c-1.493.184-2.266-1.163-2.319-2.49a4.2,4.2,0,0,0,.279,4.281c-.574-.126-1.378.176-1.966.082-.378,2.231,1.512,4.73,3.267,6.032,1.9,1.406,5.7,1.094,2.562,3.7-2.311,1.925-4.264.818-4.341,4.537-.055,2.663,1.214,5.152,4.035,5.068a.863.863,0,0,1,.19-.449c-2.057,2.367-1.485,6.262.637,8.324-.431-1.392-.656-3.369.694-4.228-.183,1.075-.036,2.188,1.028,2.573-.432,5,8.933,5.255,12.276,5.578,2.541.243,4.882,1.295,7.392,1.545a49.4,49.4,0,0,0,7.35-.308c.23-10.339,5.725-19.7,9.413-29.169,1.664-4.275-.79-6.836-3.823-10.162-4.368-4.788-9.127-8.94-12.939-14.044Z" transform="translate(-301.242 -35.043)" fill="#261513"/>
          <path id="Path_1978" data-name="Path 1978" d="M375.438,122.087c-3.817-4.771-34.028-15.25-34.028-15.25s-29.58,11.589-34.03,15.25-6.123,26.8-6.123,26.8h79.428S379.253,126.858,375.438,122.087Z" transform="translate(-301.256 -33.54)" fill="#cc3446"/>
          <path id="Path_1979" data-name="Path 1979" d="M349.8,112.731s-1.157,5.622-9.358,5.622-9.356-5.622-9.356-5.622a12.523,12.523,0,0,0,0-9.884c-2.282-5.336,21.5-6.418,18.713,0S349.8,112.731,349.8,112.731Z" transform="translate(-300.278 -33.842)" fill="#d79563"/>
          <path id="Path_1980" data-name="Path 1980" d="M360.512,93.887c.594-8.006,5.661-19.549,5.661-19.549,7.207-16.162-4.36-39.777-14.237-33.039-10.579-14.15-46.09,1.695-35.395,32.819,0,0,4.392,10.731,4.816,18.652s14.618,15.531,19.177,15.787S359.918,101.895,360.512,93.887Z" transform="translate(-300.817 -36.08)" fill="#261513"/>
          <path id="Path_1981" data-name="Path 1981" d="M366.008,77.68c0,4.234-2.993,10.052-5.011,10.052s-3.654-3.432-3.654-7.668A9.1,9.1,0,0,1,361,72.4C362.951,70.864,366.008,72.4,366.008,77.68Z" transform="translate(-299.407 -34.797)" fill="#f9ab78"/>
          <path id="Path_1982" data-name="Path 1982" d="M315.108,77.68c0,4.234,2.995,10.052,5.011,10.052s3.652-3.432,3.652-7.668a9.1,9.1,0,0,0-3.652-7.667C318.166,70.864,315.108,72.4,315.108,77.68Z" transform="translate(-300.799 -34.797)" fill="#f9ab78"/>
          <path id="Path_1983" data-name="Path 1983" d="M341.154,45.074c-14.183,0-20.455,9.965-20.455,24.833V88.522c0,12.949,14.918,24.025,19.632,24.025S361.61,99.6,361.61,87.33V69.907C361.61,55.039,355.339,45.074,341.154,45.074Z" transform="translate(-300.615 -35.757)" fill="#f9ab78"/>
          <path id="Path_1984" data-name="Path 1984" d="M361.66,80.579l.6-7.722c3.091-15.029-6.738-29.568-20.921-29.568s-25.181,15.862-21.387,30.891l.8,8.782a10.545,10.545,0,0,0,3.207-6.474c.631-5.538,4.643-10.952,12.4-12.437,12.233-2.343,15.67-9.7,15.67-9.7a59.329,59.329,0,0,1,5.142,9.7c1.655,3.875,0,6.25,1.43,10.121A33.558,33.558,0,0,0,361.66,80.579Z" transform="translate(-300.665 -35.821)" fill="#261513"/>
        </g>
      </g>
    </g>
  </g>
</svg>
