<svg xmlns="http://www.w3.org/2000/svg" xmlns:xlink="http://www.w3.org/1999/xlink" width="149.353" height="150.33" viewBox="0 0 149.353 150.33">
  <defs>
    <filter id="Path_2010" x="0" y="0" width="149.353" height="150.33" filterUnits="userSpaceOnUse">
      <feOffset dx="5" dy="6" input="SourceAlpha"/>
      <feGaussianBlur stdDeviation="3" result="blur"/>
      <feFlood flood-opacity="0.161"/>
      <feComposite operator="in" in2="blur"/>
      <feComposite in="SourceGraphic"/>
    </filter>
    <clipPath id="clip-path">
      <path id="Path_2018" data-name="Path 2018" d="M156.574,94.548c0,36.541-29.4,66.164-65.675,66.164S25.221,131.089,25.221,94.548,54.626,28.382,90.9,28.382,156.574,58,156.574,94.548Z" transform="translate(-25.221 -28.382)" fill="#988bc1"/>
    </clipPath>
  </defs>
  <g id="Female_avatar_2" data-name="Female avatar 2" transform="translate(-21.221 -25.382)">
    <g id="Group_3613" data-name="Group 3613" transform="translate(25.221 28.382)">
      <g transform="matrix(1, 0, 0, 1, -4, -3)" filter="url(#Path_2010)">
        <path id="Path_2010-2" data-name="Path 2010" d="M156.574,94.548c0,36.541-29.4,66.164-65.675,66.164S25.221,131.089,25.221,94.548,54.626,28.382,90.9,28.382,156.574,58,156.574,94.548Z" transform="translate(-21.22 -25.38)" fill="#988bc1"/>
      </g>
      <g id="Group_3612" data-name="Group 3612" clip-path="url(#clip-path)">
        <g id="Group_3611" data-name="Group 3611" transform="translate(21.7 8.663)">
          <path id="Path_2011" data-name="Path 2011" d="M112.549,99.877c.642-8.7,1.7-22.24,1.7-22.24,7.793-17.557-4.717-43.208-15.4-35.887C87.415,26.377,49.015,43.591,60.58,77.4a108.213,108.213,0,0,1-1.53,21.843c-2.9,15.022-8.118,31.243-3.291,34.963,6.794,5.238,56.791,5.823,59.836,1.908C120.533,129.769,111.906,108.576,112.549,99.877Z" transform="translate(-43.58 -36.08)" fill="#dd1a1e"/>
          <path id="Path_2012" data-name="Path 2012" d="M124.861,123.4c-4.127-5.184-36.795-16.565-36.795-16.565s-31.984,12.588-36.8,16.565-6.619,29.117-6.619,29.117h85.886S128.986,128.586,124.861,123.4Z" transform="translate(-44.649 -27.216)" fill="#132e2a"/>
          <path id="Path_2013" data-name="Path 2013" d="M94.721,113.963s-1.25,6.108-10.12,6.108-10.115-6.108-10.115-6.108a13.657,13.657,0,0,0,0-10.735c-2.466-5.8,23.252-6.973,20.235,0S94.721,113.963,94.721,113.963Z" transform="translate(-41.179 -28.27)" fill="#d79563"/>
          <path id="Path_2014" data-name="Path 2014" d="M110.105,78.184c0,4.6-3.237,10.921-5.418,10.921s-3.952-3.73-3.952-8.33a9.9,9.9,0,0,1,3.952-8.327C106.8,70.782,110.105,72.447,110.105,78.184Z" transform="translate(-38.089 -31.601)" fill="#f9ab78"/>
          <path id="Path_2015" data-name="Path 2015" d="M58.5,78.184c0,4.6,3.24,10.921,5.421,10.921s3.948-3.73,3.948-8.33a9.9,9.9,0,0,0-3.948-8.327C61.807,70.782,58.5,72.447,58.5,78.184Z" transform="translate(-43.029 -31.601)" fill="#f9ab78"/>
          <path id="Path_2016" data-name="Path 2016" d="M86.21,45.073c-15.339,0-22.119,10.827-22.119,26.975V92.272c0,14.065,16.132,26.1,21.228,26.1s23.008-14.066,23.008-27.391V72.048C108.327,55.9,101.547,45.073,86.21,45.073Z" transform="translate(-42.375 -34.954)" fill="#f9ab78"/>
          <path id="Path_2017" data-name="Path 2017" d="M108.5,83.8l.647-8.387c3.342-16.325-7.285-32.12-22.621-32.12S59.3,60.521,63.4,76.846l.865,9.54a11.459,11.459,0,0,0,3.467-7.032c.4-3.464,1.719-17.463,1.719-17.463l1.683,8.265,18.5,1.224L92.8,64.838l1.271,6.838,5.88.386,3.786-11.442s.528,9.935,1.706,17.423C106.18,82.724,108.5,83.8,108.5,83.8Z" transform="translate(-42.551 -35.177)" fill="#dd1a1e"/>
        </g>
      </g>
    </g>
  </g>
</svg>
