<svg id="hair-salon" xmlns="http://www.w3.org/2000/svg" width="66.594" height="66.593" viewBox="0 0 66.594 66.593">
  <path id="Path_88" data-name="Path 88" d="M105.78,177.047v41.334a2.3,2.3,0,0,1-2.3,2.3H55.261a2.3,2.3,0,0,1-2.3-2.3V177.047Zm0,0" transform="translate(-46.075 -154.084)" fill="#f9eab0"/>
  <path id="Path_89" data-name="Path 89" d="M283.629,300.633H299.7a1.148,1.148,0,0,1,1.148,1.148v13.778a1.148,1.148,0,0,1-1.148,1.148H283.629a1.148,1.148,0,0,1-1.148-1.148V301.781A1.148,1.148,0,0,1,283.629,300.633Zm0,0" transform="translate(-245.739 -261.596)" fill="#90bae1"/>
  <path id="Path_90" data-name="Path 90" d="M300.851,301.78v3.95c-12.687-.976-16.051,6.407-16.935,10.976h-.287a1.148,1.148,0,0,1-1.148-1.148V301.78a1.148,1.148,0,0,1,1.148-1.148H299.7a1.148,1.148,0,0,1,1.148,1.148Zm0,0" transform="translate(-245.739 -261.595)" fill="#b0d3f0"/>
  <path id="Path_91" data-name="Path 91" d="M24.627,26.98H11.359a8.039,8.039,0,0,0-7.84,6.265L.332,47.338l-.322,1.4a.051.051,0,0,0,0,.057A.86.86,0,0,0,0,48.956a4.61,4.61,0,0,0,4.765,4.432c2.618,0,5.557-1.986,5.557-4.432a.738.738,0,0,0-.011-.161h.023a.772.772,0,0,0-.012.161,4.467,4.467,0,0,0,4.6,4.432,4.448,4.448,0,0,0,4.581-4.432.772.772,0,0,0-.012-.161h.023a.738.738,0,0,0-.011.161,4.467,4.467,0,0,0,4.6,4.432,4.467,4.467,0,0,0,4.6-4.432A.772.772,0,0,0,28.7,48.8h.023a.738.738,0,0,0-.011.161,4.583,4.583,0,0,0,9.162,0,.738.738,0,0,0-.012-.161h.023a.739.739,0,0,0-.012.161,4.608,4.608,0,0,0,9.208,0,.772.772,0,0,0-.012-.161H47.1a.738.738,0,0,0-.011.161,4.592,4.592,0,0,0,9.185,0,.738.738,0,0,0-.011-.161h.023a.772.772,0,0,0-.012.161c0,2.446,2.939,4.432,5.557,4.432a4.61,4.61,0,0,0,4.765-4.432.738.738,0,0,0-.011-.161.053.053,0,0,0,0-.057l-.322-1.4L63.072,33.245a8.037,8.037,0,0,0-7.84-6.265Zm0,0" transform="translate(0.001 -23.536)" fill="#cc4b4c"/>
  <path id="Path_92" data-name="Path 92" d="M184.154,13.13A12.63,12.63,0,1,1,171.525.5,12.63,12.63,0,0,1,184.154,13.13Zm0,0" transform="translate(-138.228 -0.5)" fill="#fb7b76"/>
  <path id="Path_93" data-name="Path 93" d="M98.25,300.633h16.074a1.149,1.149,0,0,1,1.148,1.148v26.408H97.1V301.781a1.149,1.149,0,0,1,1.148-1.148Zm0,0" transform="translate(-84.472 -261.596)" fill="#7f5b53"/>
  <g id="Group_69" data-name="Group 69" transform="translate(36.741 39.037)">
    <path id="Path_94" data-name="Path 94" d="M289.369,354.746a1.149,1.149,0,0,1-1.148,1.148H282.48v-2.3h5.741A1.148,1.148,0,0,1,289.369,354.746Zm0,0" transform="translate(-282.48 -346.709)" fill="#5e5f62"/>
    <path id="Path_95" data-name="Path 95" d="M346.57,300.633v5.741a1.148,1.148,0,1,1-2.3,0v-5.741Zm0,0" transform="translate(-336.236 -300.633)" fill="#5e5f62"/>
    <path id="Path_96" data-name="Path 96" d="M377.643,353.6v2.3H371.9a1.148,1.148,0,1,1,0-2.3Zm0,0" transform="translate(-359.273 -346.709)" fill="#5e5f62"/>
    <path id="Path_97" data-name="Path 97" d="M346.57,372.4v5.741h-2.3V372.4a1.148,1.148,0,1,1,2.3,0Zm0,0" transform="translate(-336.236 -362.065)" fill="#5e5f62"/>
  </g>
  <path id="Path_98" data-name="Path 98" d="M196.5,398.883a1.148,1.148,0,1,1-1.148-1.148A1.148,1.148,0,0,1,196.5,398.883Zm0,0" transform="translate(-168.947 -346.068)" fill="#2c2f38"/>
  <path id="Path_99" data-name="Path 99" d="M221.834,37.313a1.148,1.148,0,0,1-.812-1.96l3.386-3.387,3.4-4.527a1.148,1.148,0,1,1,1.837,1.378L226.2,33.409a1.294,1.294,0,0,1-.107.123l-3.444,3.444A1.144,1.144,0,0,1,221.834,37.313Zm0,0" transform="translate(-191.982 -23.535)" fill="#b0d3f0"/>
  <path id="Path_100" data-name="Path 100" d="M228.725,37.315a1.146,1.146,0,0,1-.812-.337l-3.444-3.444a1.247,1.247,0,0,1-.107-.123l-3.444-4.592a1.148,1.148,0,1,1,1.837-1.378l3.4,4.527,3.386,3.387a1.148,1.148,0,0,1-.811,1.96Zm0,0" transform="translate(-191.983 -23.537)" fill="#b0d3f0"/>
  <path id="Path_101" data-name="Path 101" d="M198.8,97.959a4.593,4.593,0,1,1,3.247-1.345A4.593,4.593,0,0,1,198.8,97.959Zm0-6.888a2.3,2.3,0,1,0,2.3,2.3A2.3,2.3,0,0,0,198.8,91.07Zm0,0" transform="translate(-168.947 -77.292)" fill="#90bae1"/>
  <path id="Path_102" data-name="Path 102" d="M251.76,97.959a4.593,4.593,0,1,1,3.247-1.345A4.593,4.593,0,0,1,251.76,97.959Zm0-6.888a2.3,2.3,0,1,0,2.3,2.3A2.3,2.3,0,0,0,251.76,91.07Zm0,0" transform="translate(-215.019 -77.292)" fill="#90bae1"/>
</svg>
