<svg xmlns="http://www.w3.org/2000/svg" width="80" height="80" viewBox="0 0 80 80">
  <g id="online-payment" transform="translate(0.416 0.029)">
    <circle id="Ellipse_2" data-name="Ellipse 2" cx="40" cy="40" r="40" transform="translate(-0.416 -0.029)" fill="#ffc300"/>
    <path id="Path_141" data-name="Path 141" d="M88,78.989a7.423,7.423,0,0,0,4.963-7V7.412A7.414,7.414,0,0,0,85.566,0H57.791a7.414,7.414,0,0,0-7.4,7.413v55.8h0A39.477,39.477,0,0,0,88,78.989Z" transform="translate(-42.733 0.524)" fill="#666"/>
    <path id="Path_142" data-name="Path 142" d="M50.393,7.414v55.8a39.828,39.828,0,0,0,4.1,4.752V7.414A7.414,7.414,0,0,1,61.89,0h-4.1A7.414,7.414,0,0,0,50.393,7.414Z" transform="translate(-42.733 0.522)" fill="#5a5b5b"/>
    <path id="Path_143" data-name="Path 143" d="M107.9,26.483h-3.811a.886.886,0,0,0-.885.887V28.5a1.917,1.917,0,0,1-1.91,1.914H86.728a1.917,1.917,0,0,1-1.91-1.914V27.72a1.236,1.236,0,0,0-1.235-1.237H80.122a3.3,3.3,0,0,0-3.3,3.306V90.345a39.664,39.664,0,0,0,9.93,7.173H107.9a3.3,3.3,0,0,0,3.3-3.306V29.789A3.3,3.3,0,0,0,107.9,26.483Z" transform="translate(-65.064 -21.853)" fill="#f9f6ed"/>
    <path id="Path_144" data-name="Path 144" d="M80.123,26.477a3.3,3.3,0,0,0-3.3,3.306V90.34a39.8,39.8,0,0,0,3.936,3.416V29.783a3.3,3.3,0,0,1,3.006-3.291C83.574,26.464,83.778,26.483,80.123,26.477Z" transform="translate(-65.065 -21.847)" fill="#eae4d6"/>
    <g id="Group_87" data-name="Group 87" transform="translate(22.571 3.433)">
      <path id="Path_145" data-name="Path 145" d="M178.161,21.163h-6.232a1.2,1.2,0,0,1,0-2.392h6.232a1.2,1.2,0,0,1,0,2.392Z" transform="translate(-166.983 -18.77)" fill="#7f7e7d"/>
      <path id="Path_146" data-name="Path 146" d="M147.071,20.956a1.193,1.193,0,1,1,.894.179A1.917,1.917,0,0,1,147.071,20.956Z" transform="translate(-146.541 -18.764)" fill="#7f7e7d"/>
    </g>
    <path id="Path_147" data-name="Path 147" d="M106.044,438.941h-3.193a.534.534,0,0,1-.533-.533v-3.2a.534.534,0,0,1,.533-.533h3.193a.534.534,0,0,1,.533.533v3.2A.534.534,0,0,1,106.044,438.941Z" transform="translate(-86.605 -366.739)" fill="#0eb0ff"/>
    <path id="Path_148" data-name="Path 148" d="M154.531,438.941h-3.193a.534.534,0,0,1-.533-.533v-3.2a.534.534,0,0,1,.533-.533h3.193a.534.534,0,0,1,.533.533v3.2A.534.534,0,0,1,154.531,438.941Z" transform="translate(-127.572 -366.739)" fill="#ffc30a"/>
    <path id="Path_149" data-name="Path 149" d="M203.017,438.941h-3.193a.534.534,0,0,1-.533-.533v-3.2a.534.534,0,0,1,.533-.533h3.193a.534.534,0,0,1,.533.533v3.2A.534.534,0,0,1,203.017,438.941Z" transform="translate(-168.539 -366.739)" fill="#e0d5bd"/>
    <path id="Path_150" data-name="Path 150" d="M251.5,438.941H248.31a.534.534,0,0,1-.533-.533v-3.2a.534.534,0,0,1,.533-.533H251.5a.534.534,0,0,1,.533.533v3.2A.534.534,0,0,1,251.5,438.941Z" transform="translate(-209.505 -366.739)" fill="#fe3f4e"/>
    <path id="SVGCleanerId_0" d="M203.051,166.727v-21.01h0V142.8h0v-6.622a1.6,1.6,0,0,0-1.6-1.6H148.141a1.6,1.6,0,0,0-1.6,1.6V142.8h0v5.838h0v18.091a1.6,1.6,0,0,0,1.6,1.6h53.311A1.6,1.6,0,0,0,203.051,166.727Z" transform="translate(-123.971 -113.183)" fill="#0eb0ff"/>
    <g id="Group_88" data-name="Group 88" transform="translate(22.571 21.394)">
      <path id="SVGCleanerId_0_1_" d="M203.051,166.727v-21.01h0V142.8h0v-6.622a1.6,1.6,0,0,0-1.6-1.6H148.141a1.6,1.6,0,0,0-1.6,1.6V142.8h0v5.838h0v18.091a1.6,1.6,0,0,0,1.6,1.6h53.311A1.6,1.6,0,0,0,203.051,166.727Z" transform="translate(-146.542 -134.577)" fill="#0eb0ff"/>
    </g>
    <path id="Path_151" data-name="Path 151" d="M154.952,166.728V136.177a1.6,1.6,0,0,1,1.6-1.6H148.14a1.6,1.6,0,0,0-1.6,1.6v30.551a1.6,1.6,0,0,0,1.6,1.6h8.411A1.6,1.6,0,0,1,154.952,166.728Z" transform="translate(-123.97 -113.184)" fill="#009cf7"/>
    <path id="Path_152" data-name="Path 152" d="M390.191,267.234a4.875,4.875,0,0,1,1.257-6.306,4.881,4.881,0,1,0,0,7.737A4.855,4.855,0,0,1,390.191,267.234Z" transform="translate(-324.268 -219.088)" fill="#fe3f4e"/>
    <path id="Path_153" data-name="Path 153" d="M386.741,266.628a4.875,4.875,0,0,1,1.784-6.659l.056-.03a4.874,4.874,0,1,0,2.278,9.126A4.872,4.872,0,0,1,386.741,266.628Z" transform="translate(-324.268 -219.102)" fill="#fa243a"/>
    <path id="Path_154" data-name="Path 154" d="M441.347,262.359a4.868,4.868,0,0,0-7.187-1.431,4.875,4.875,0,0,1,0,7.737,4.875,4.875,0,0,0,7.189-6.306Z" transform="translate(-366.981 -219.087)" fill="#ffc30a"/>
    <path id="Path_155" data-name="Path 155" d="M425.021,267.845a4.861,4.861,0,0,0-1.254-1.431,4.876,4.876,0,0,0,0,7.737A4.875,4.875,0,0,0,425.021,267.845Z" transform="translate(-356.587 -224.574)" fill="#ff7110"/>
    <path id="Path_156" data-name="Path 156" d="M180.351,284.52h3.593a1.538,1.538,0,0,0,0-3.075h-3.593a1.538,1.538,0,1,0,0,3.075Z" transform="translate(-151.237 -237.274)" fill="#e6e6e6"/>
    <path id="Path_157" data-name="Path 157" d="M181.465,282.983A1.542,1.542,0,0,1,183,281.445h-2.651a1.538,1.538,0,1,0,0,3.075H183A1.542,1.542,0,0,1,181.465,282.983Z" transform="translate(-151.238 -237.274)" fill="#ccc"/>
    <path id="Path_158" data-name="Path 158" d="M240.175,284.52h3.593a1.538,1.538,0,1,0,0-3.075h-3.593a1.538,1.538,0,0,0,0,3.075Z" transform="translate(-201.783 -237.274)" fill="#e6e6e6"/>
    <path id="Path_159" data-name="Path 159" d="M241.288,282.983a1.542,1.542,0,0,1,1.538-1.538h-2.651a1.538,1.538,0,0,0,0,3.075h2.651A1.542,1.542,0,0,1,241.288,282.983Z" transform="translate(-201.783 -237.274)" fill="#ccc"/>
    <path id="Path_160" data-name="Path 160" d="M300,284.52h3.593a1.538,1.538,0,1,0,0-3.075H300a1.538,1.538,0,1,0,0,3.075Z" transform="translate(-252.329 -237.274)" fill="#e6e6e6"/>
    <path id="Path_161" data-name="Path 161" d="M301.112,282.983a1.542,1.542,0,0,1,1.538-1.538H300a1.538,1.538,0,1,0,0,3.075h2.651A1.542,1.542,0,0,1,301.112,282.983Z" transform="translate(-252.329 -237.274)" fill="#ccc"/>
    <path id="Path_162" data-name="Path 162" d="M186.8,183.173h-6.479a1.516,1.516,0,0,1-1.512-1.512v-3.223a1.516,1.516,0,0,1,1.512-1.512H186.8a1.516,1.516,0,0,1,1.512,1.512v3.223A1.516,1.516,0,0,1,186.8,183.173Z" transform="translate(-151.238 -148.965)" fill="#ffc30a"/>
    <path id="Path_163" data-name="Path 163" d="M183,181.662v-3.223a1.516,1.516,0,0,1,1.512-1.512h-4.187a1.516,1.516,0,0,0-1.512,1.512v3.223a1.516,1.516,0,0,0,1.512,1.512h4.187A1.516,1.516,0,0,1,183,181.662Z" transform="translate(-151.238 -148.965)" fill="#ffa01a"/>
    <path id="Path_164" data-name="Path 164" d="M479.028,157.067a1.05,1.05,0,0,0-1.047,1.047v10.778a1.047,1.047,0,0,0,2.094,0V158.114A1.05,1.05,0,0,0,479.028,157.067Z" transform="translate(-404.007 -132.185)" fill="#50d1dc"/>
  </g>
</svg>
