<svg id="smartphone" xmlns="http://www.w3.org/2000/svg" width="71.859" height="75.085" viewBox="0 0 71.859 75.085">
  <path id="Path_103" data-name="Path 103" d="M71.612,84.034a35.928,35.928,0,1,0-24.683,9.823,36.293,36.293,0,0,0,4.59-.291Z" transform="translate(-10.999 -18.772)" fill="#ffc81a"/>
  <path id="Path_104" data-name="Path 104" d="M201.962,139.947a10.345,10.345,0,0,1-.329-3.56l.587-5.527a19.128,19.128,0,0,0-1.777-10.064c-3.966-8.068-3.056-8.653-3.18-16.66a2.962,2.962,0,1,0-5.923,0c0,32.561.061,30.172-.14,31.126v4.264a6.522,6.522,0,0,1-6.515,6.515H168.473a23.006,23.006,0,0,0,9.852,7.818l.073.031c3.055,1.29,6.466,3.865,7.036,7.06l.055.228a35.809,35.809,0,0,0,20.8-9.869Z" transform="translate(-145.379 -86.338)" fill="#f9ba8f"/>
  <path id="Path_105" data-name="Path 105" d="M54.549,91.7l-.9-.836a3.447,3.447,0,1,0-4.685,5.057l5.588,5.177Z" transform="translate(-42.455 -76.756)" fill="#f9ba8f"/>
  <path id="Path_106" data-name="Path 106" d="M50.794,95.555a3.447,3.447,0,0,1-1.066-3,3.412,3.412,0,0,0-.953.717,3.457,3.457,0,0,0,.186,4.871l5.588,5.177V99.034Z" transform="translate(-42.455 -78.984)" fill="#fcad6d"/>
  <g id="Group_70" data-name="Group 70" transform="translate(35.207 54.317)">
    <path id="Path_107" data-name="Path 107" d="M272.722,370.388a17.459,17.459,0,0,1-21.645,14.361c2.323,1.421,4.413,3.5,4.848,5.935l.055.228a35.809,35.809,0,0,0,20.8-9.869Z" transform="translate(-251.077 -370.388)" fill="#fd995b"/>
  </g>
  <g id="Group_71" data-name="Group 71" transform="translate(11.965 0)">
    <path id="Path_108" data-name="Path 108" d="M121.482,59.844H97.69a5.108,5.108,0,0,1-5.1-5.1V5.1A5.108,5.108,0,0,1,97.69,0h23.792a5.108,5.108,0,0,1,5.1,5.1V54.742a5.108,5.108,0,0,1-5.1,5.1Z" transform="translate(-92.588)" fill="#2a428c"/>
  </g>
  <path id="Path_109" data-name="Path 109" d="M97.69,0a5.108,5.108,0,0,0-5.1,5.1V54.742a5.108,5.108,0,0,0,5.1,5.1h7.093c-1.574-1.606.262-3.175.262-3.175a3.268,3.268,0,0,1-2.371-3.4V9.053a3.506,3.506,0,0,1,2.644-3.26,1.511,1.511,0,0,1,0-2.136V1.893A1.38,1.38,0,0,1,104.756,0Z" transform="translate(-80.623 0)" fill="#142766"/>
  <g id="Group_72" data-name="Group 72" transform="translate(23.813 1.893)">
    <path id="Path_110" data-name="Path 110" d="M174.771,14.671h-.509a.882.882,0,0,1,0-1.764h.509a.882.882,0,1,1,0,1.764Z" transform="translate(-173.38 -12.907)" fill="#3c58a0"/>
  </g>
  <g id="Group_73" data-name="Group 73" transform="translate(27.332 1.893)">
    <path id="Path_111" data-name="Path 111" d="M203.153,14.671h-4.9a.882.882,0,0,1,0-1.764h4.9a.882.882,0,1,1,0,1.764Z" transform="translate(-197.376 -12.907)" fill="#3c58a0"/>
  </g>
  <path id="Path_112" data-name="Path 112" d="M139.954,21.646h-3.576a1.207,1.207,0,0,0-1.207,1.207,1.415,1.415,0,0,1-1.411,1.411h-11.4a1.415,1.415,0,0,1-1.411-1.411,1.207,1.207,0,0,0-1.207-1.207h-3.576a1.928,1.928,0,0,0-1.928,1.928V73.213a1.928,1.928,0,0,0,1.928,1.928h23.792a1.928,1.928,0,0,0,1.928-1.928V23.574A1.928,1.928,0,0,0,139.954,21.646Z" transform="translate(-99.095 -18.472)" fill="#73c3f9"/>
  <path id="Path_113" data-name="Path 113" d="M123.516,75.142c-.367-1.582,1.468-1.951,1.468-1.951s1.167-10.223,0-11.39a1.534,1.534,0,0,1,0-2.269s1.275-10.115,0-11.39a1.429,1.429,0,0,1,0-2.269V34.483a2.566,2.566,0,0,1-1.082-3.517V27.7a2.41,2.41,0,0,1-.113-3.435h-1.434a1.415,1.415,0,0,1-1.411-1.411,1.207,1.207,0,0,0-1.207-1.207h-3.576a1.928,1.928,0,0,0-1.928,1.928v49.64a1.928,1.928,0,0,0,1.928,1.928h7.354Z" transform="translate(-99.095 -18.472)" fill="#4fabf7"/>
  <g id="Group_74" data-name="Group 74" transform="translate(20.157 9.227)">
    <path id="Path_114" data-name="Path 114" d="M150.083,66.187h14.345a1.633,1.633,0,1,0,0-3.266H150.083a1.633,1.633,0,1,0,0,3.266Z" transform="translate(-148.45 -62.921)" fill="#e9efff"/>
  </g>
  <path id="Path_115" data-name="Path 115" d="M150.084,62.921H153.1v3.267h-3.017a1.633,1.633,0,0,1,0-3.267Z" transform="translate(-128.294 -53.694)" fill="#9bd8f9"/>
  <g id="Group_75" data-name="Group 75" transform="translate(17.423 16.01)">
    <path id="Path_116" data-name="Path 116" d="M151.415,120.564H131.272a1.473,1.473,0,0,1-1.469-1.469v-8.452a1.473,1.473,0,0,1,1.469-1.469h20.143a1.473,1.473,0,0,1,1.469,1.469v8.452A1.473,1.473,0,0,1,151.415,120.564Z" transform="translate(-129.803 -109.174)" fill="#e9efff"/>
    <path id="Path_117" data-name="Path 117" d="M151.415,213.7H131.272a1.473,1.473,0,0,1-1.469-1.469v-8.452a1.473,1.473,0,0,1,1.469-1.469h20.143a1.473,1.473,0,0,1,1.469,1.469v8.452A1.473,1.473,0,0,1,151.415,213.7Z" transform="translate(-129.803 -188.655)" fill="#e9efff"/>
    <path id="Path_118" data-name="Path 118" d="M151.415,306.844H131.272a1.473,1.473,0,0,1-1.469-1.469v-8.452a1.473,1.473,0,0,1,1.469-1.469h20.143a1.473,1.473,0,0,1,1.469,1.469v8.452A1.473,1.473,0,0,1,151.415,306.844Z" transform="translate(-129.803 -268.136)" fill="#e9efff"/>
    <path id="Path_119" data-name="Path 119" d="M151.415,120.564H131.272a1.473,1.473,0,0,1-1.469-1.469v-8.452a1.473,1.473,0,0,1,1.469-1.469h20.143a1.473,1.473,0,0,1,1.469,1.469v8.452A1.473,1.473,0,0,1,151.415,120.564Z" transform="translate(-129.803 -109.174)" fill="#e9efff"/>
    <path id="Path_120" data-name="Path 120" d="M151.415,213.7H131.272a1.473,1.473,0,0,1-1.469-1.469v-8.452a1.473,1.473,0,0,1,1.469-1.469h20.143a1.473,1.473,0,0,1,1.469,1.469v8.452A1.473,1.473,0,0,1,151.415,213.7Z" transform="translate(-129.803 -188.655)" fill="#e9efff"/>
    <path id="Path_121" data-name="Path 121" d="M151.415,306.844H131.272a1.473,1.473,0,0,1-1.469-1.469v-8.452a1.473,1.473,0,0,1,1.469-1.469h20.143a1.473,1.473,0,0,1,1.469,1.469v8.452A1.473,1.473,0,0,1,151.415,306.844Z" transform="translate(-129.803 -268.136)" fill="#e9efff"/>
  </g>
  <path id="Path_122" data-name="Path 122" d="M136.8,119.1v-8.451a1.473,1.473,0,0,1,1.469-1.469h-7a1.473,1.473,0,0,0-1.469,1.469V119.1a1.473,1.473,0,0,0,1.469,1.469h7A1.473,1.473,0,0,1,136.8,119.1Z" transform="translate(-112.38 -93.165)" fill="#d3dcfb"/>
  <path id="Path_123" data-name="Path 123" d="M136.8,212.235v-8.452a1.473,1.473,0,0,1,1.469-1.469h-7a1.473,1.473,0,0,0-1.469,1.469v8.452a1.473,1.473,0,0,0,1.469,1.469h7A1.473,1.473,0,0,1,136.8,212.235Z" transform="translate(-112.38 -172.645)" fill="#d3dcfb"/>
  <path id="Path_124" data-name="Path 124" d="M136.8,305.375v-8.452a1.473,1.473,0,0,1,1.469-1.469h-7a1.473,1.473,0,0,0-1.469,1.469v8.452a1.473,1.473,0,0,0,1.469,1.469h7A1.473,1.473,0,0,1,136.8,305.375Z" transform="translate(-112.38 -252.126)" fill="#d3dcfb"/>
  <g id="Group_76" data-name="Group 76" transform="translate(21.178 18.535)">
    <path id="Path_125" data-name="Path 125" d="M162.4,128.587h-5.891a1.1,1.1,0,0,1,0-2.2H162.4a1.1,1.1,0,0,1,0,2.2Z" transform="translate(-155.413 -126.387)" fill="#3c58a0"/>
  </g>
  <g id="Group_77" data-name="Group 77" transform="translate(21.178 22.676)">
    <path id="Path_126" data-name="Path 126" d="M169.883,156.829h-13.37a1.1,1.1,0,0,1,0-2.2h13.37a1.1,1.1,0,0,1,0,2.2Z" transform="translate(-155.413 -154.629)" fill="#bec8f7"/>
  </g>
  <g id="Group_78" data-name="Group 78" transform="translate(30.833 18.535)">
    <path id="Path_127" data-name="Path 127" d="M223.179,128.587h-.831a1.1,1.1,0,1,1,0-2.2h.831a1.1,1.1,0,0,1,0,2.2Z" transform="translate(-221.248 -126.387)" fill="#bec8f7"/>
  </g>
  <g id="Group_79" data-name="Group 79" transform="translate(21.178 32.194)">
    <path id="Path_128" data-name="Path 128" d="M162.4,221.727h-5.891a1.1,1.1,0,1,1,0-2.2H162.4a1.1,1.1,0,1,1,0,2.2Z" transform="translate(-155.413 -219.527)" fill="#3c58a0"/>
  </g>
  <g id="Group_80" data-name="Group 80" transform="translate(21.178 36.335)">
    <path id="Path_129" data-name="Path 129" d="M169.883,249.969h-13.37a1.1,1.1,0,0,1,0-2.2h13.37a1.1,1.1,0,0,1,0,2.2Z" transform="translate(-155.413 -247.769)" fill="#bec8f7"/>
  </g>
  <g id="Group_81" data-name="Group 81" transform="translate(30.833 32.194)">
    <path id="Path_130" data-name="Path 130" d="M223.179,221.727h-.831a1.1,1.1,0,1,1,0-2.2h.831a1.1,1.1,0,0,1,0,2.2Z" transform="translate(-221.248 -219.527)" fill="#bec8f7"/>
  </g>
  <g id="Group_82" data-name="Group 82" transform="translate(21.178 45.853)">
    <path id="Path_131" data-name="Path 131" d="M162.4,314.867h-5.891a1.1,1.1,0,1,1,0-2.2H162.4a1.1,1.1,0,1,1,0,2.2Z" transform="translate(-155.413 -312.667)" fill="#3c58a0"/>
  </g>
  <g id="Group_83" data-name="Group 83" transform="translate(21.178 49.994)">
    <path id="Path_132" data-name="Path 132" d="M169.883,343.109h-13.37a1.1,1.1,0,1,1,0-2.2h13.37a1.1,1.1,0,0,1,0,2.2Z" transform="translate(-155.413 -340.909)" fill="#bec8f7"/>
  </g>
  <g id="Group_84" data-name="Group 84" transform="translate(30.833 45.853)">
    <path id="Path_133" data-name="Path 133" d="M223.179,314.867h-.831a1.1,1.1,0,1,1,0-2.2h.831a1.1,1.1,0,1,1,0,2.2Z" transform="translate(-221.248 -312.667)" fill="#bec8f7"/>
  </g>
  <path id="Path_134" data-name="Path 134" d="M67.765,169.046a3.02,3.02,0,0,1-4.268.163l-5.059-4.688a3.02,3.02,0,0,1,4.105-4.431l5.059,4.688A3.02,3.02,0,0,1,67.765,169.046Z" transform="translate(-50.656 -135.926)" fill="#f9ba8f"/>
  <path id="Path_135" data-name="Path 135" d="M65.578,167.79,60.519,163.1a3.019,3.019,0,0,1-.868-2.983,3.016,3.016,0,0,0-1.213,5.113l5.059,4.688a3.02,3.02,0,0,0,4.973-1.448A3.015,3.015,0,0,1,65.578,167.79Z" transform="translate(-50.656 -136.638)" fill="#fcad6d"/>
  <g id="Group_85" data-name="Group 85" transform="translate(6.815 39.835)">
    <path id="Path_136" data-name="Path 136" d="M67.765,281.4a3.02,3.02,0,0,1-4.268.163l-5.059-4.687a3.02,3.02,0,1,1,4.105-4.431l5.059,4.687A3.02,3.02,0,0,1,67.765,281.4Z" transform="translate(-57.471 -271.635)" fill="#f9ba8f"/>
  </g>
  <path id="Path_137" data-name="Path 137" d="M65.578,280.138l-5.059-4.687a3.019,3.019,0,0,1-.868-2.983,3.016,3.016,0,0,0-1.213,5.113l5.059,4.687a3.02,3.02,0,0,0,4.973-1.448A3.015,3.015,0,0,1,65.578,280.138Z" transform="translate(-50.656 -232.511)" fill="#fcad6d"/>
  <path id="Path_138" data-name="Path 138" d="M67.765,225.221a3.02,3.02,0,0,1-4.268.163L58.438,220.7a3.02,3.02,0,0,1,4.105-4.431l5.059,4.688A3.02,3.02,0,0,1,67.765,225.221Z" transform="translate(-50.656 -183.863)" fill="#f9ba8f"/>
  <path id="Path_139" data-name="Path 139" d="M65.578,223.964l-5.059-4.688a3.019,3.019,0,0,1-.868-2.983,3.016,3.016,0,0,0-1.213,5.113l5.059,4.688a3.02,3.02,0,0,0,4.973-1.448A3.015,3.015,0,0,1,65.578,223.964Z" transform="translate(-50.656 -184.575)" fill="#fcad6d"/>
  <path id="Path_140" data-name="Path 140" d="M405.709,86.887c-1.95,2.481-3.71,6.045-2.3,9.934,2.64,7.3,6.844,13.49,4.888,24.276-.887,4.894,2.024,6.945,5.469,7.727a35.943,35.943,0,0,0-8.055-41.937Z" transform="translate(-345.426 -74.145)" fill="#ffd44d"/>
</svg>
